<?xml version="1.0" encoding="UTF-8" standalone="no"?>
<svg
   xmlns:dc="http://purl.org/dc/elements/1.1/"
   xmlns:cc="http://creativecommons.org/ns#"
   xmlns:rdf="http://www.w3.org/1999/02/22-rdf-syntax-ns#"
   xmlns:svg="http://www.w3.org/2000/svg"
   xmlns="http://www.w3.org/2000/svg"
   viewBox="0 0 26.666668 26.666668"
   height="26.666668"
   width="26.666668"
   xml:space="preserve"
   id="svg2"
   version="1.1"><metadata
     id="metadata8"><rdf:RDF><cc:Work
         rdf:about=""><dc:format>image/svg+xml</dc:format><dc:type
           rdf:resource="http://purl.org/dc/dcmitype/StillImage" /></cc:Work></rdf:RDF></metadata><defs
     id="defs6" /><g
     transform="matrix(1.3333333,0,0,-1.3333333,0,26.666667)"
     id="g10"><g
       transform="scale(0.1)"
       id="g12"><path
         id="path14"
         style="fill:#000000;fill-opacity:1;fill-rule:nonzero;stroke:none"
         d="M 100,197.539 C 50.9414,197.539 9.14063,161.949 1.28906,113.551 -6.55859,65.1211 21.8398,18.1602 68.3594,2.66016 c 5,-0.85938 6.8711,2.10937 6.8711,4.76172 0,2.34765 -0.1094,10.23832 -0.1094,18.59762 C 50,21.4102 43.5195,32.1484 41.4805,37.7695 39.3008,43.2383 35.7813,48.0898 31.25,51.9102 c -3.5195,1.8789 -8.5195,6.4882 -0.1211,6.6093 6.4922,-0.7109 12.2305,-4.539 15.3516,-10.2382 2.7812,-4.961 7.3906,-8.6329 12.8593,-10.1602 5.461,-1.5625 11.3204,-0.8516 16.2813,1.918 0.4297,5.082 2.6992,9.8398 6.3672,13.3593 -22.2188,2.5 -45.5078,11.1329 -45.5078,49.3716 -0.1094,9.96 3.5586,19.57 10.2812,26.878 -3.0508,8.633 -2.7031,18.122 0.9688,26.524 0,0 8.3984,2.617 27.5,-10.274 16.3711,4.493 33.6795,4.493 49.9995,0 19.149,13.012 27.5,10.274 27.5,10.274 3.719,-8.402 4.071,-17.891 1.02,-26.524 6.762,-7.308 10.43,-16.918 10.23,-26.878 0,-38.3598 -23.359,-46.8716 -45.621,-49.3716 4.84,-4.8789 7.301,-11.6367 6.762,-18.4765 C 125.121,21.5195 125,10.7813 125,7.42188 125,4.76953 126.879,1.64063 131.879,2.66016 178.32,18.2813 206.602,65.2695 198.672,113.629 190.781,161.988 149.02,197.5 100,197.539 Z" /></g></g></svg>