<?xml version="1.0" encoding="UTF-8" standalone="no"?>
<!-- Created with Inkscape (http://www.inkscape.org/) -->

<svg
   version="1.1"
   id="svg2"
   width="29.333332"
   height="32"
   viewBox="0 0 29.333332 32"
   sodipodi:docname="node-js.eps"
   xmlns:inkscape="http://www.inkscape.org/namespaces/inkscape"
   xmlns:sodipodi="http://sodipodi.sourceforge.net/DTD/sodipodi-0.dtd"
   xmlns="http://www.w3.org/2000/svg"
   xmlns:svg="http://www.w3.org/2000/svg">
  <defs
     id="defs6" />
  <sodipodi:namedview
     id="namedview4"
     pagecolor="#ffffff"
     bordercolor="#000000"
     borderopacity="0.25"
     inkscape:showpageshadow="2"
     inkscape:pageopacity="0.0"
     inkscape:pagecheckerboard="0"
     inkscape:deskcolor="#d1d1d1" />
  <g
     id="g8"
     inkscape:groupmode="layer"
     inkscape:label="ink_ext_XXXXXX"
     transform="matrix(1.3333333,0,0,-1.3333333,0,32)">
    <g
       id="g10"
       transform="scale(0.1)">
      <path
         d="M 84.1406,29.7305 C 77.9688,26.1719 76.8008,25.7383 71.0195,23.6719 69.6094,23.1992 67.5,22.3398 71.8398,19.8789 L 100.82,2.5 c 2.77,-1.640625 5.981,-2.4609375 9.102,-2.4609375 L 109.961,0 c 3.199,0 6.328,0.859375 9.098,2.46094 L 205.898,53.2383 C 211.52,56.5586 215,62.7305 215,69.3008 V 170.781 c 0,6.598 -3.48,12.77 -9.102,16.059 l -86.839,50.82 c -5.661,3.121 -12.539,3.121 -18.239,0 L 14.1016,186.879 C 8.44141,183.52 5,177.422 5,170.82 V 69.3398 C 5,62.7305 8.48047,56.5586 14.1016,53.2813 L 36.8789,40 c 10.9727,-5.5117 14.9219,-5.5117 19.9609,-5.5117 16.2813,0 25.6993,10 25.6993,27.4219 V 162.148 c 0,1.403 -1.1289,2.543 -2.5391,2.543 H 68.9805 c -0.6602,0 -1.2813,-0.281 -1.7891,-0.742 -0.4726,-0.469 -0.7422,-1.14 -0.7422,-1.801 V 61.9492 c 0,-7.7304 -7.8984,-15.4297 -20.8281,-8.8984 L 21.8398,66.9492 c -0.8203,0.4727 -1.3281,1.3711 -1.3281,2.3516 V 170.781 c 0,0.981 0.5078,1.949 1.3672,2.418 L 108.59,223.98 c 0.82,0.469 1.84,0.469 2.66,0 l 86.801,-50.742 c 0.82,-0.508 1.328,-1.398 1.328,-2.418 V 69.3008 c 0,-0.9414 -0.508,-1.9219 -1.289,-2.3906 L 111.25,16.1289 c -0.82,-0.4687 -1.84,-0.4687 -2.66,0 L 86.2891,29.5313 c -0.668,0.4296 -1.4883,0.5898 -2.1485,0.1992 z"
         style="fill:#8cc03e;fill-opacity:1;fill-rule:nonzero;stroke:none"
         id="path12" />
      <path
         d="m 136.762,85.3086 c -23.012,0 -28.051,5.8633 -29.731,17.4214 -0.152,1.25 -1.25,2.149 -2.5,2.149 H 93.3203 c -0.6601,0 -1.289,-0.27 -1.7617,-0.738 -0.4688,-0.469 -0.7383,-1.129 -0.7383,-1.801 0,-14.8009 7.9688,-32.4611 45.9807,-32.4611 27.418,0.043 43.238,11.0625 43.238,30.1991 H 180 c 0,18.981 -12.699,24.024 -39.34,27.621 -26.988,3.59 -29.68,5.461 -29.68,11.832 0,5.27 2.301,12.348 22.258,12.348 17.813,0 24.422,-3.91 27.114,-16.098 0.238,-1.133 1.289,-1.992 2.457,-1.992 h 11.293 c 0.699,0 1.367,0.27 1.839,0.82 0.469,0.512 0.7,1.211 0.661,1.911 -1.762,21.019 -15.512,30.781 -43.364,30.781 -24.758,0 -39.5271,-10.582 -39.5271,-28.321 0,-19.25 14.7301,-24.601 38.4801,-26.949 28.43,-2.812 30.618,-7.07 30.618,-12.7302 0,-9.8125 -7.77,-13.9922 -26.047,-13.9922 z"
         style="fill:#8cc03e;fill-opacity:1;fill-rule:nonzero;stroke:none"
         id="path14" />
    </g>
  </g>
</svg>
