<?xml version="1.0" encoding="UTF-8" standalone="no"?>
<!-- Created with Inkscape (http://www.inkscape.org/) -->

<svg
   version="1.1"
   id="svg2"
   width="3326.6667"
   height="3309.3333"
   viewBox="0 0 3326.6667 3309.3333"
   sodipodi:docname="python.eps"
   xmlns:inkscape="http://www.inkscape.org/namespaces/inkscape"
   xmlns:sodipodi="http://sodipodi.sourceforge.net/DTD/sodipodi-0.dtd"
   xmlns="http://www.w3.org/2000/svg"
   xmlns:svg="http://www.w3.org/2000/svg">
  <defs
     id="defs6">
    <clipPath
       clipPathUnits="userSpaceOnUse"
       id="clipPath18">
      <path
         d="m 12383,24813 c -6330.7,0 -5935.42,-2745.4 -5935.42,-2745.4 l 7.03,-2844.2 h 6041.29 v -854 H 4055.16 c 0,0 -4051.01937,459.5 -4051.01937,-5928.1 C 4.14063,6053.52 3539.96,6280.04 3539.96,6280.04 h 2110.16 v 2964.18 c 0,0 -113.75,3535.78 3479.33,3535.78 h 5991.85 c 0,0 3366.4,-54.4 3366.4,3253.5 v 5469.4 c 0,0 511.2,3310.1 -6104.7,3310.1 z M 9051.84,22900.3 c 288.32,0.2 564.92,-114.2 768.78,-318.1 203.88,-203.8 318.28,-480.4 318.08,-768.8 0.2,-288.3 -114.2,-564.8 -318.08,-768.7 -203.86,-203.9 -480.46,-318.3 -768.78,-318.1 -288.32,-0.2 -564.89,114.2 -768.79,318.1 -203.87,203.9 -318.28,480.4 -318.01,768.7 -0.27,288.4 114.14,565 318.01,768.8 203.9,203.9 480.47,318.3 768.79,318.1 z"
         id="path16" />
    </clipPath>
    <linearGradient
       x1="0.12959"
       y1="0.12039"
       x2="0.79639"
       y2="0.78201002"
       gradientUnits="userSpaceOnUse"
       gradientTransform="matrix(18492.7,0,0,-18533.9,4.14062,24813)"
       spreadMethod="pad"
       id="linearGradient24">
      <stop
         style="stop-opacity:1;stop-color:#387eb8"
         offset="0"
         id="stop20" />
      <stop
         style="stop-opacity:1;stop-color:#366994"
         offset="1"
         id="stop22" />
    </linearGradient>
    <clipPath
       clipPathUnits="userSpaceOnUse"
       id="clipPath34">
      <path
         d="m 12562.7,5.35156 c 6330.7,0 5935.4,2745.34844 5935.4,2745.34844 l -7,2844.14 h -6041.3 v 853.95 h 8440.7 c 0,0 4050.9,-459.45 4050.9,5928.31 0,6387.7 -3535.7,6161.2 -3535.7,6161.2 h -2110.2 v -2964.1 c 0,0 113.8,-3535.8 -3479.4,-3535.8 H 9824.34 c 0,0 -3366.41,54.4 -3366.41,-3253.6 V 3315.27 c 0,0 -511.17,-3309.91844 6104.77,-3309.91844 z M 15893.9,1917.85 c -288.3,-0.23 -564.9,114.18 -768.8,318.05 -203.9,203.87 -318.3,480.47 -318,768.79 -0.3,288.32 114.1,564.92 318,768.83 203.8,203.9 480.5,318.32 768.8,318.04 288.3,0.28 564.9,-114.14 768.8,-318.01 203.8,-203.86 318.2,-480.46 318,-768.78 0.2,-288.32 -114.2,-564.93 -318,-768.79 -203.9,-203.87 -480.5,-318.28 -768.8,-318.01 z"
         id="path32" />
    </clipPath>
    <linearGradient
       x1="0.19128001"
       y1="0.20579"
       x2="0.90741998"
       y2="0.88428998"
       gradientUnits="userSpaceOnUse"
       gradientTransform="matrix(18492.7,0,0,-18533.9,6448.79,18539.3)"
       spreadMethod="pad"
       id="linearGradient40">
      <stop
         style="stop-opacity:1;stop-color:#ffe052"
         offset="0"
         id="stop36" />
      <stop
         style="stop-opacity:1;stop-color:#ffc331"
         offset="1"
         id="stop38" />
    </linearGradient>
  </defs>
  <sodipodi:namedview
     id="namedview4"
     pagecolor="#ffffff"
     bordercolor="#000000"
     borderopacity="0.25"
     inkscape:showpageshadow="2"
     inkscape:pageopacity="0.0"
     inkscape:pagecheckerboard="0"
     inkscape:deskcolor="#d1d1d1" />
  <g
     id="g8"
     inkscape:groupmode="layer"
     inkscape:label="ink_ext_XXXXXX"
     transform="matrix(1.3333333,0,0,-1.3333333,0,3309.3333)">
    <g
       id="g10"
       transform="scale(0.1)">
      <g
         id="g12">
        <g
           id="g14"
           clip-path="url(#clipPath18)">
          <path
             d="m 12383,24813 c -6330.7,0 -5935.42,-2745.4 -5935.42,-2745.4 l 7.03,-2844.2 h 6041.29 v -854 H 4055.16 c 0,0 -4051.01937,459.5 -4051.01937,-5928.1 C 4.14063,6053.52 3539.96,6280.04 3539.96,6280.04 h 2110.16 v 2964.18 c 0,0 -113.75,3535.78 3479.33,3535.78 h 5991.85 c 0,0 3366.4,-54.4 3366.4,3253.5 v 5469.4 c 0,0 511.2,3310.1 -6104.7,3310.1 z M 9051.84,22900.3 c 288.32,0.2 564.92,-114.2 768.78,-318.1 203.88,-203.8 318.28,-480.4 318.08,-768.8 0.2,-288.3 -114.2,-564.8 -318.08,-768.7 -203.86,-203.9 -480.46,-318.3 -768.78,-318.1 -288.32,-0.2 -564.89,114.2 -768.79,318.1 -203.87,203.9 -318.28,480.4 -318.01,768.7 -0.27,288.4 114.14,565 318.01,768.8 203.9,203.9 480.47,318.3 768.79,318.1 z"
             style="fill:url(#linearGradient24);fill-opacity:1;fill-rule:nonzero;stroke:none"
             id="path26" />
        </g>
      </g>
      <g
         id="g28">
        <g
           id="g30"
           clip-path="url(#clipPath34)">
          <path
             d="m 12562.7,5.35156 c 6330.7,0 5935.4,2745.34844 5935.4,2745.34844 l -7,2844.14 h -6041.3 v 853.95 h 8440.7 c 0,0 4050.9,-459.45 4050.9,5928.31 0,6387.7 -3535.7,6161.2 -3535.7,6161.2 h -2110.2 v -2964.1 c 0,0 113.8,-3535.8 -3479.4,-3535.8 H 9824.34 c 0,0 -3366.41,54.4 -3366.41,-3253.6 V 3315.27 c 0,0 -511.17,-3309.91844 6104.77,-3309.91844 z M 15893.9,1917.85 c -288.3,-0.23 -564.9,114.18 -768.8,318.05 -203.9,203.87 -318.3,480.47 -318,768.79 -0.3,288.32 114.1,564.92 318,768.83 203.8,203.9 480.5,318.32 768.8,318.04 288.3,0.28 564.9,-114.14 768.8,-318.01 203.8,-203.86 318.2,-480.46 318,-768.78 0.2,-288.32 -114.2,-564.93 -318,-768.79 -203.9,-203.87 -480.5,-318.28 -768.8,-318.01 z"
             style="fill:url(#linearGradient40);fill-opacity:1;fill-rule:nonzero;stroke:none"
             id="path42" />
        </g>
      </g>
    </g>
  </g>
</svg>
