<?xml version="1.0" encoding="UTF-8" standalone="no"?>
<svg
   xmlns:dc="http://purl.org/dc/elements/1.1/"
   xmlns:cc="http://creativecommons.org/ns#"
   xmlns:rdf="http://www.w3.org/1999/02/22-rdf-syntax-ns#"
   xmlns:svg="http://www.w3.org/2000/svg"
   xmlns="http://www.w3.org/2000/svg"
   viewBox="0 0 36 32"
   height="32"
   width="36"
   xml:space="preserve"
   id="svg2"
   version="1.1"><metadata
     id="metadata8"><rdf:RDF><cc:Work
         rdf:about=""><dc:format>image/svg+xml</dc:format><dc:type
           rdf:resource="http://purl.org/dc/dcmitype/StillImage" /></cc:Work></rdf:RDF></metadata><defs
     id="defs6" /><g
     transform="matrix(1.3333333,0,0,-1.3333333,0,32)"
     id="g10"><g
       transform="scale(0.1)"
       id="g12"><path
         id="path14"
         style="fill:#61DAFB;fill-opacity:1;fill-rule:nonzero;stroke:none"
         d="m 159.02,120.27 c 0,-13.321 -10.782,-24.0981 -24.098,-24.0981 -13.32,0 -24.102,10.7771 -24.102,24.0981 0,13.281 10.782,24.109 24.102,24.109 13.316,0 24.098,-10.828 24.098,-24.109 z" /><path
         id="path16"
         style="fill:#61DAFB;fill-opacity:1;fill-rule:nonzero;stroke:none"
         d="M 134.922,65.0781 C 132.891,65 130.551,64.9609 128.16,64.9609 c -28.121,0 -55.2303,4.2579 -80.7381,12.1485 l 1.9179,-0.5078 C 35.8594,80.9805 24.1406,87.3789 13.9492,95.6211 l 0.1914,-0.1523 C 6.25,101.172 0.941406,110.039 0.0390625,120.16 v 0.11 c 0,15.941 17.4609375,31.57 46.8007375,41.718 25.1094,8.282 54.0582,13.051 84.0582,13.051 1.403,0 2.774,0 4.18,-0.039 h -0.238 c 1.18,0.039 2.539,0.039 3.91,0.039 29.648,0 58.199,-4.687 84.961,-13.359 l -1.949,0.55 c 13.039,-4.261 24.367,-10.351 34.328,-18.171 l -0.231,0.203 c 7.731,-5.473 12.969,-14.032 13.871,-23.871 v -0.121 c 0,-16.559 -19.531,-33.3208 -51.058,-43.7505 -23.594,-7.3007 -50.781,-11.4804 -78.942,-11.4804 -1.679,0 -3.359,0 -5.082,0.039 z m 0,98.4019 c -1.051,0 -2.344,0 -3.594,0 -28.789,0 -56.5585,-4.531 -82.578,-12.89 l 1.9102,0.539 c -26.9883,-9.41 -39.1016,-22.301 -39.1016,-30.899 0,-8.902 13.0117,-22.9605 41.5312,-32.73 22.5,-6.9492 48.3592,-10.9805 75.1482,-10.9805 2.352,0 4.692,0.0391 6.992,0.0821 h -0.308 c 1.449,-0.043 3.168,-0.043 4.879,-0.043 26.84,0 52.738,3.9922 77.148,11.4102 L 215.078,87.5 c 29.613,9.8398 43.203,23.91 43.203,32.77 -1.011,6.41 -4.609,11.761 -9.652,15.16 l -0.078,0.082 c -8.672,6.718 -18.75,12.148 -29.68,15.699 l -0.711,0.238 c -23.711,7.653 -50.93,12.071 -79.211,12.071 -1.41,0 -2.82,0 -4.219,-0.04 z" /><path
         id="path18"
         style="fill:#61DAFB;fill-opacity:1;fill-rule:nonzero;stroke:none"
         d="m 80.2305,0.160156 c -0.1524,0 -0.3516,-0.039062 -0.5391,-0.039062 -4.5312,0 -8.75,1.207036 -12.4219,3.277346 L 67.3789,3.32031 C 53.5898,11.3281 48.7891,34.2617 54.5703,64.7305 61.5586,96.0195 72.8516,123.672 88.0117,148.75 l -0.6719,-1.25 c 14.9612,26.559 33.0902,49.262 54.2192,68.711 l 0.242,0.199 c 9.219,8.43 20,15.352 31.828,20.27 l 0.75,0.269 c 4.062,1.961 8.859,3.09 13.902,3.09 5,0 9.77,-1.129 13.989,-3.129 l -0.2,0.078 c 14.379,-8.277 19.102,-33.59 12.379,-66.047 -7.179,-29.691 -18.16,-55.82 -32.609,-79.6129 l 0.699,1.25 C 168.012,66.2891 150.469,43.75 129.879,24.3789 L 129.73,24.2617 C 120.16,15.4688 108.91,8.35938 96.5195,3.44141 L 95.7813,3.16016 C 91.1719,1.37109 85.8594,0.230469 80.3086,0.121094 h -0.0781 z m 12.039,144.448844 5,-2.89 C 83.4805,118.949 72.6211,92.4609 66.2109,64.3398 l -0.3515,-1.8007 c -5.3086,-28.0899 -0.1992,-45 7.2304,-49.2578 1.8711,-1.0118 4.1407,-1.6407 6.5586,-1.6407 0.1914,0 0.3907,0 0.5821,0.0391 9.539,0 24.5705,6.0508 41.9605,21.2109 19.758,18.668 36.52,40.2305 49.719,64.0196 l 0.668,1.3711 c 13.16,21.5587 23.711,46.5197 30.231,73.0897 l 0.39,1.789 c 6.289,30.59 0.86,49.301 -6.828,53.789 -2.391,0.942 -5.16,1.492 -8.051,1.492 -3.629,0 -7.07,-0.863 -10.121,-2.421 l 0.16,0.07 c -11.211,-4.641 -20.781,-10.86 -29.097,-18.469 l 0.078,0.078 c -20.391,-18.828 -37.738,-40.59 -51.3712,-64.687 l -0.668,-1.332 z" /><path
         id="path20"
         style="fill:#61DAFB;fill-opacity:1;fill-rule:nonzero;stroke:none"
         d="M 189.609,0 C 176.52,0 160,7.85156 142.699,22.7695 120.941,42.5781 102.539,65.5898 88.0508,91.0898 l -0.711,1.3711 C 73.0508,115.98 61.8398,143.199 55.1992,172.23 l -0.3594,1.829 c -1.6406,7.113 -2.5703,15.242 -2.5703,23.601 0,5.231 0.3907,10.43 1.0899,15.5 l -0.0781,-0.582 c 0.8593,9.961 6.0976,18.551 13.707,23.981 l 0.1211,0.082 c 14.3008,8.281 38.6286,-0.231 63.4416,-22.301 20.187,-19.141 37.461,-41.141 51.168,-65.391 l 0.703,-1.371 c 14.297,-22.969 25.59,-49.6092 32.418,-77.9686 l 0.39,-1.8789 c 1.649,-7.1094 2.579,-15.2305 2.579,-23.5899 0,-5.7812 -0.469,-11.4414 -1.329,-16.9492 l 0.079,0.5781 C 215.551,17.5781 210.16,8.78906 202.301,3.23828 l -0.11,-0.07812 C 198.711,1.17188 194.531,0 190.121,0 189.922,0 189.77,0 189.57,0 Z M 97.3008,98.2383 C 111.91,72.5391 129.488,50.5117 150.039,31.6797 l 0.191,-0.1992 c 21.649,-18.6289 38.829,-22.65237 46.29,-18.3203 7.742,4.4609 13.359,22.7382 7.539,52.3086 -7.028,28.9101 -17.887,54.3322 -32.18,77.4222 l 0.621,-1.129 c -13.789,24.566 -30.27,45.617 -49.449,63.859 l -0.16,0.078 c -23.3207,20.75 -42.2308,25.43 -49.9613,20.942 -4.7305,-3.832 -7.8516,-9.493 -8.2383,-15.903 v -0.078 c -0.5508,-3.898 -0.8633,-8.39 -0.8633,-12.961 0,-7.578 0.8633,-14.969 2.461,-22.039 l -0.1172,0.668 c 6.7187,-29.527 17.457,-55.59 31.8398,-79.2186 l -0.6719,1.1289 z" /></g></g></svg>