<?xml version="1.0" encoding="UTF-8" standalone="no"?>
<svg
   xmlns:dc="http://purl.org/dc/elements/1.1/"
   xmlns:cc="http://creativecommons.org/ns#"
   xmlns:rdf="http://www.w3.org/1999/02/22-rdf-syntax-ns#"
   xmlns:svg="http://www.w3.org/2000/svg"
   xmlns="http://www.w3.org/2000/svg"
   viewBox="0 0 21.333332 21.333332"
   height="21.333332"
   width="21.333332"
   xml:space="preserve"
   id="svg2"
   version="1.1"><metadata
     id="metadata8"><rdf:RDF><cc:Work
         rdf:about=""><dc:format>image/svg+xml</dc:format><dc:type
           rdf:resource="http://purl.org/dc/dcmitype/StillImage" /></cc:Work></rdf:RDF></metadata><defs
     id="defs6" /><g
     transform="matrix(1.3333333,0,0,-1.3333333,0,21.333333)"
     id="g10"><g
       transform="scale(0.1)"
       id="g12"><path
         id="path14"
         style="fill:#ffffff;fill-opacity:1;fill-rule:nonzero;stroke:none"
         d="M 0,110 H 35.7813 V 0 H 0 Z m 133.238,-1.289 c -0.386,0.117 -0.738,0.238 -1.129,0.348 -0.507,0.121 -0.98,0.203 -1.449,0.281 -2.109,0.43 -4.289,0.66 -6.441,0.66 -20.86,0 -34.0588,-15.1602 -38.4377,-21.0195 l 0,21.0195 H 50 V 0 h 35.7813 v 60 c 0,0 27.0277,37.6602 38.4377,10 V 0 H 160 v 74.2188 c -0.039,16.25 -11.02,30.4292 -26.762,34.4922 z" /><path
         id="path16"
         style="fill:#ffffff;fill-opacity:1;fill-rule:nonzero;stroke:none"
         d="M 35,142.5 C 35,132.852 27.1484,125 17.5,125 7.85156,125 0,132.852 0,142.5 0,152.148 7.85156,160 17.5,160 27.1484,160 35,152.148 35,142.5 Z" /></g></g></svg>