<?xml version="1.0" encoding="UTF-8" standalone="no"?>
<!-- Created with Inkscape (http://www.inkscape.org/) -->

<svg
   version="1.1"
   id="svg2"
   width="74.666664"
   height="162.66667"
   viewBox="0 0 74.666664 162.66667"
   sodipodi:docname="mongodb.eps"
   xmlns:inkscape="http://www.inkscape.org/namespaces/inkscape"
   xmlns:sodipodi="http://sodipodi.sourceforge.net/DTD/sodipodi-0.dtd"
   xmlns="http://www.w3.org/2000/svg"
   xmlns:svg="http://www.w3.org/2000/svg">
  <defs
     id="defs6" />
  <sodipodi:namedview
     id="namedview4"
     pagecolor="#ffffff"
     bordercolor="#000000"
     borderopacity="0.25"
     inkscape:showpageshadow="2"
     inkscape:pageopacity="0.0"
     inkscape:pagecheckerboard="0"
     inkscape:deskcolor="#d1d1d1" />
  <g
     id="g8"
     inkscape:groupmode="layer"
     inkscape:label="ink_ext_XXXXXX"
     transform="matrix(1.3333333,0,0,-1.3333333,0,162.66667)">
    <g
       id="g10"
       transform="scale(0.1)">
      <path
         d="m 520.391,821.879 c 16.058,-46.41 27.621,-93.828 31.41,-142.969 4.719,-60.941 2.539,-121.449 -10.321,-181.41 -0.351,-1.641 -1.089,-3.199 -1.64,-4.801 -4.02,0 -8.121,0.5 -12.07,-0.121 -33.282,-5.238 -66.559,-10.668 -99.801,-16.058 -34.379,-5.54 -68.828,-10.899 -103.129,-16.829 -12.141,-2.113 -27.219,0.387 -32.11,-16.453 -0.152,-0.429 -1.558,-0.508 -2.378,-0.777 l 1.679,100.508 c -0.582,80.859 -1.133,161.679 -1.679,242.543 l 16.019,2.726 c 26.207,4.301 52.379,8.641 78.59,12.813 31.328,4.969 62.617,9.808 93.949,14.648 13.789,2.153 27.61,4.102 41.481,6.18 z"
         style="fill:#439934;fill-opacity:1;fill-rule:evenodd;stroke:none"
         id="path12" />
      <path
         d="m 257.301,149.449 c -16.91,14.531 -34.41,28.442 -50.582,43.711 C 119.531,275.391 55.7813,372.148 24.3789,488.828 15.6992,520.941 9.96094,553.551 8.08984,586.762 6.80078,609.961 4.92188,633.398 6.55859,656.48 10.9414,717.93 19.8008,778.789 37.8086,837.969 l 1.0195,1.371 c 1.7617,-2.352 4.2617,-4.379 5.1524,-7.039 17.5781,-51.789 35.039,-103.629 52.4297,-155.5 C 150.98,513.828 205.512,350.781 260.16,187.809 c 1.051,-3.161 3.82,-5.778 5.82,-8.668 z"
         style="fill:#45a538;fill-opacity:1;fill-rule:evenodd;stroke:none"
         id="path14" />
      <path
         d="m 520.391,821.879 c -13.871,-2.078 -27.692,-4.027 -41.481,-6.18 -31.332,-4.84 -62.66,-9.648 -93.949,-14.648 -26.211,-4.141 -52.422,-8.512 -78.59,-12.813 l -16.062,-2.726 -0.11,10.468 c -0.508,8.551 -1.41,17.141 -1.527,25.739 -0.703,54.761 -1.133,109.57 -1.793,164.332 -0.43,34.299 -1.059,68.599 -1.758,102.859 -0.43,21.29 -0.902,42.61 -1.84,63.86 -0.551,11.45 -2.383,22.82 -3.121,34.26 -0.43,6.56 0.149,13.17 0.309,19.77 8.16,-15.82 16.133,-31.76 24.531,-47.46 13.281,-24.85 34.41,-43.17 53.441,-63.13 75.231,-78.91 128.668,-170.659 161.95,-274.331 z"
         style="fill:#46a037;fill-opacity:1;fill-rule:evenodd;stroke:none"
         id="path16" />
      <path
         d="m 290.352,442.461 c 0.82,0.269 2.226,0.348 2.347,0.82 4.922,16.797 19.961,14.297 32.141,16.41 34.301,5.93 68.75,11.289 103.129,16.868 33.242,5.39 66.519,10.781 99.801,16.019 3.949,0.621 8.05,0.121 12.07,0.121 -6.211,-22.187 -11.129,-44.89 -18.981,-66.449 -8.98,-24.488 -19.808,-48.398 -31.328,-71.84 -17.191,-35.031 -38.633,-67.691 -63.511,-97.609 -19.219,-23.09 -40.59,-44.422 -62.04,-65.469 -11.832,-11.684 -25.82,-21.172 -38.82,-31.641 l -3.359,2.297 -12.153,10.391 -12.539,27.543 c -8.668,32.226 -13.199,65.039 -13.949,98.359 l 0.238,5.629 1.68,24.25 c 0.582,8.289 1.332,16.57 1.684,24.852 1.289,29.797 2.418,59.648 3.59,89.449 z"
         style="fill:#409433;fill-opacity:1;fill-rule:evenodd;stroke:none"
         id="path18" />
      <path
         d="m 290.352,442.461 c -1.172,-29.801 -2.301,-59.652 -3.551,-89.449 -0.352,-8.321 -1.141,-16.563 -1.68,-24.852 l -7.66,-2.89 c -16.992,50 -33.981,99.5 -50.621,149.109 -27.5,82.101 -54.649,164.332 -82.11,246.441 -22.191,66.289 -44.531,132.461 -67.0308,198.668 -1.0586,3.09 -4.0703,5.512 -6.1797,8.242 l 48.9925,90.04 c 1.679,-2.93 3.898,-5.66 4.957,-8.79 22.652,-67.031 45.23,-134.101 67.652,-201.21 29.18,-87.258 58.168,-174.649 87.309,-261.95 1.129,-3.519 3.09,-6.718 4.879,-10.621 l 6.722,7.813 c -0.551,-33.524 -1.133,-67.032 -1.679,-100.551 z"
         style="fill:#4faa41;fill-opacity:1;fill-rule:evenodd;stroke:none"
         id="path20" />
      <path
         d="m 71.5586,927.73 c 2.0703,-2.73 5.082,-5.152 6.1719,-8.281 C 100.199,853.281 122.539,787.07 144.73,720.781 172.191,638.672 199.34,556.48 226.84,474.379 243.48,424.77 260.469,375.27 277.461,325.23 l 7.66,2.891 -1.723,-24.25 -1.519,-5.59 c -2.66,-26.562 -4.93,-53.16 -8.168,-79.691 -1.602,-13.281 -5.082,-26.289 -7.691,-39.449 -2,2.847 -4.77,5.468 -5.86,8.668 -54.648,162.972 -109.18,325.98 -163.7498,488.992 -17.3907,51.871 -34.8516,103.711 -52.4297,155.5 -0.8907,2.621 -3.3907,4.687 -5.1524,7.039 10.9024,29.449 21.793,58.941 32.7305,88.39 z"
         style="fill:#4aa73c;fill-opacity:1;fill-rule:evenodd;stroke:none"
         id="path22" />
      <path
         d="m 292.031,542.969 -6.722,-7.77 c -1.829,3.903 -3.75,7.102 -4.918,10.582 -29.102,87.34 -58.09,174.688 -87.27,261.989 -22.422,67.109 -45.031,134.14 -67.652,201.18 -1.059,3.16 -3.278,5.89 -4.957,8.78 l 60.539,79.65 c 1.918,-2.54 4.609,-4.8 5.59,-7.65 16.839,-49.22 33.48,-98.519 50.039,-147.82 15.468,-46.012 30.699,-92.14 46.371,-138.121 1.051,-3.09 4.679,-5.238 7.148,-7.848 l 0.11,-10.429 c 0.589,-80.821 1.14,-161.684 1.722,-242.543 z"
         style="fill:#57ae47;fill-opacity:1;fill-rule:evenodd;stroke:none"
         id="path24" />
      <path
         d="m 290.199,795.98 c -2.429,2.571 -6.097,4.758 -7.109,7.848 -15.668,45.973 -30.899,92.07 -46.371,138.121 -16.559,49.301 -33.239,98.561 -50.039,147.781 -0.981,2.89 -3.711,5.15 -5.629,7.69 19.687,19.3 38.789,39.26 59.258,57.66 18.211,16.33 32.851,33.83 33.519,59.65 0.043,1.09 0.582,2.15 1.442,5.15 l 5.199,-13.04 c -0.117,-6.64 -0.699,-13.25 -0.27,-19.81 0.742,-11.44 2.571,-22.81 3.082,-34.22 0.981,-21.29 1.449,-42.58 1.879,-63.9 0.66,-34.26 1.289,-68.56 1.719,-102.859 0.699,-54.762 1.133,-109.531 1.793,-164.332 0.117,-8.598 1.019,-17.188 1.527,-25.739 z"
         style="fill:#60b24f;fill-opacity:1;fill-rule:evenodd;stroke:none"
         id="path26" />
      <path
         d="m 265.98,179.141 c 2.61,13.16 6.09,26.211 7.731,39.488 3.238,26.492 5.469,53.133 8.129,79.652 l 0.66,0.117 0.66,-0.117 c 0.75,-33.32 5.281,-66.133 13.949,-98.359 -1.757,-2.34 -4.257,-4.41 -5.199,-7.031 -7.262,-20.512 -14.101,-41.129 -21.398,-61.641 -1.024,-2.809 -3.793,-5 -5.742,-7.461 l -7.5,25.66 z"
         style="fill:#a9aa88;fill-opacity:1;fill-rule:evenodd;stroke:none"
         id="path28" />
      <path
         d="m 264.77,123.789 c 1.949,2.461 4.718,4.652 5.742,7.422 7.297,20.508 14.179,41.168 21.398,61.68 0.942,2.621 3.442,4.691 5.199,6.988 l 12.539,-27.539 c -2.457,-3.508 -5.898,-6.68 -7.269,-10.578 l -24.02,-70.5901 c -1.019,-2.8516 -4.379,-4.8399 -6.64,-7.2227 z"
         style="fill:#b6b598;fill-opacity:1;fill-rule:evenodd;stroke:none"
         id="path30" />
      <path
         d="m 271.719,83.9492 c 2.261,2.3828 5.621,4.4102 6.64,7.2227 l 24.02,70.5901 c 1.371,3.898 4.812,7.109 7.269,10.617 l 12.153,-10.391 c -5.86,-5.777 -9.102,-12.5 -7.153,-20.968 l -3.707,-12.071 c -1.679,-2.07 -4.101,-3.867 -4.921,-6.25 -8.399,-24.0271 -16.411,-48.1677 -24.848,-72.1873 -1.094,-3.0898 -4.063,-5.4726 -6.133,-8.1328 -1.09,13.8711 -2.23,27.7031 -3.32,41.5703 z"
         style="fill:#c2c1a7;fill-opacity:1;fill-rule:evenodd;stroke:none"
         id="path32" />
      <path
         d="m 275.039,42.3789 c 2.07,2.7031 5.039,5.082 6.133,8.1328 8.437,23.9766 16.449,48.1602 24.848,72.1873 0.82,2.383 3.242,4.18 4.96,6.25 l -5.121,-55.4295 c -1.371,-1.6093 -3.32,-2.9687 -3.98,-4.8086 -5.75,-16.1289 -11.18,-32.3789 -16.918,-48.5117 -1.211,-3.3203 -3.481,-6.289 -5.27,-9.3789 -1.57,2.0703 -4.421,4.0586 -4.531,6.211 -0.512,8.4375 -0.16,16.8789 -0.121,25.3476 z"
         style="fill:#cecdb7;fill-opacity:1;fill-rule:evenodd;stroke:none"
         id="path34" />
      <path
         d="m 279.691,10.8203 c 1.789,3.1289 4.059,6.0586 5.231,9.3789 5.777,16.1328 11.207,32.3828 16.957,48.5117 0.66,1.8399 2.609,3.1993 3.98,4.8086 L 305.98,37.1094 293.789,5.85938 Z"
         style="fill:#dbdac7;fill-opacity:1;fill-rule:evenodd;stroke:none"
         id="path36" />
      <path
         d="M 293.789,5.85938 305.98,37.1094 308.48,0.121094 Z"
         style="fill:#ebe9dc;fill-opacity:1;fill-rule:evenodd;stroke:none"
         id="path38" />
      <path
         d="m 314.648,141.02 c -1.949,8.468 1.293,15.191 7.153,20.968 l 3.398,-2.297 z"
         style="fill:#cecdb7;fill-opacity:1;fill-rule:evenodd;stroke:none"
         id="path40" />
      <path
         d="m 283.16,298.281 -0.66,0.117 -0.66,-0.117 1.558,5.59 z"
         style="fill:#4faa41;fill-opacity:1;fill-rule:evenodd;stroke:none"
         id="path42" />
    </g>
  </g>
</svg>
